HIERARCHY
ROOT Hips
{
	OFFSET -3.958830 18.904000 13.208200
	CHANNELS 6 Xposition Yposition Zposition Zrotation Yrotation Xrotation 
	JOINT LHipJoint
	{
		OFFSET 0.000000 0.000000 0.000000
		CHANNELS 3 Zrotation Yrotation Xrotation
		JOINT LeftUpLeg
		{
			OFFSET 1.800000 -1.400000 0.085000
			CHANNELS 3 Zrotation Yrotation Xrotation
			JOINT LeftLeg
			{
				OFFSET 2.215000 -6.000000 0.000000
				CHANNELS 3 Zrotation Yrotation Xrotation
				JOINT LeftFoot
				{
					OFFSET 2.500000 -6.900000 0.000000
					CHANNELS 3 Zrotation Yrotation Xrotation
					JOINT LeftToeBase
					{
						OFFSET 0.200000 -0.500000 1.950000
						CHANNELS 3 Zrotation Yrotation Xrotation
						End Site
						{
							OFFSET 0.000000 0.000000 0.000000
						}
					}
				}
			}
		}
	}
	JOINT RHipJoint
	{
		OFFSET 0.000000 0.000000 0.000000
		CHANNELS 3 Zrotation Yrotation Xrotation
		JOINT RightUpLeg
		{
			OFFSET -1.800000 -1.400000 0.085000
			CHANNELS 3 Zrotation Yrotation Xrotation
			JOINT RightLeg
			{
				OFFSET -2.215000 -6.000000 0.000000
				CHANNELS 3 Zrotation Yrotation Xrotation
				JOINT RightFoot
				{
					OFFSET -2.500000 -6.900000 0.000000
					CHANNELS 3 Zrotation Yrotation Xrotation
					JOINT RightToeBase
					{
						OFFSET -0.200000 -0.500000 1.950000
						CHANNELS 3 Zrotation Yrotation Xrotation
						End Site
						{
							OFFSET 0.000000 0.000000 0.000000
						}
					}
				}
			}
		}
	}
	JOINT LowerBack
	{
		OFFSET 0.000000 0.000000 0.000000
		CHANNELS 3 Zrotation Yrotation Xrotation
		JOINT Spine
		{
			OFFSET -0.087000 1.940000 -0.288900
			CHANNELS 3 Zrotation Yrotation Xrotation
			JOINT Spine1
			{
				OFFSET 0.000000 1.950000 0.060000
				CHANNELS 3 Zrotation Yrotation Xrotation
				JOINT Neck
				{
					OFFSET 0.000000 0.000000 0.000000
					CHANNELS 3 Zrotation Yrotation Xrotation
					JOINT Neck1
					{
						OFFSET 0.000000 1.600000 0.340000
						CHANNELS 3 Zrotation Yrotation Xrotation
						JOINT Head
						{
							OFFSET 0.000000 1.667000 -0.240000
							CHANNELS 3 Zrotation Yrotation Xrotation
							End Site
							{
								OFFSET 0.000000 0.000000 0.000000
							}
						}
					}
				}
				JOINT LeftShoulder
				{
					OFFSET 0.000000 0.000000 0.000000
					CHANNELS 3 Zrotation Yrotation Xrotation
					JOINT LeftArm
					{
						OFFSET 2.700000 1.550000 -0.730000
						CHANNELS 3 Zrotation Yrotation Xrotation
						JOINT LeftForeArm
						{
							OFFSET 5.450000 0.000000 0.000000
							CHANNELS 3 Zrotation Yrotation Xrotation
							JOINT LeftHand
							{
								OFFSET 3.450000 0.000000 0.000000
								CHANNELS 3 Zrotation Yrotation Xrotation
								JOINT LeftHandIndex1
								{
									OFFSET 0.750000 0.000000 0.000000
									CHANNELS 3 Zrotation Yrotation Xrotation
									End Site
									{
										OFFSET 0.000000 0.000000 0.000000
									}
								}
							}
						}
					}
				}
				JOINT RightShoulder
				{
					OFFSET 0.000000 0.000000 0.000000
					CHANNELS 3 Zrotation Yrotation Xrotation
					JOINT RightArm
					{
						OFFSET -2.700000 1.550000 -0.730000
						CHANNELS 3 Zrotation Yrotation Xrotation
						JOINT RightForeArm
						{
							OFFSET -5.450000 0.000000 0.000000
							CHANNELS 3 Zrotation Yrotation Xrotation
							JOINT RightHand
							{
								OFFSET -3.450000 0.000000 0.000000
								CHANNELS 3 Zrotation Yrotation Xrotation
								JOINT RightHandIndex1
								{
									OFFSET -0.750000 0.000000 0.000000
									CHANNELS 3 Zrotation Yrotation Xrotation
									End Site
									{
										OFFSET 0.000000 0.000000 0.000000
									}
								}
							}
						}
					}
				}
			}
		}
	}
}
MOTION
Frames: 11
Frame Time: 0.016667
0.172300 17.557580 -1.228810 -3.567564 -39.829913 1.053440 -15.149704 14.012610 2.570163 9.383301 -0.397552 -3.142815 -4.938223 6.442514 14.353254 -0.159237 5.017143 3.063786 0.310510 0.139020 0.242360 18.221304 -10.762728 2.710175 -5.378626 2.374194 -24.999462 2.337315 -3.914104 17.643170 0.086191 -2.836339 3.405361 0.172300 0.498350 0.381620 -3.257470 -2.639426 -6.703832 5.987505 -4.224275 5.410726 0.608168 -5.989376 15.867121 0.626390 1.318086 -9.405197 -0.006122 5.015694 39.920420 -7.546550 10.191990 1.442460 -0.415744 -2.085483 3.185262 -9.645030 -12.607139 2.780859 96.614493 -57.833620 -57.938465 -3.832603 2.080590 0.093590 0.498450 -0.121510 0.284610 -0.224399 -0.534050 5.306334 28.052225 10.615975 2.486151 -121.133597 52.790712 -89.526413 1.980355 -1.709439 -0.149300 0.098970 -0.108770 -0.040840 
0.181690 17.577260 -1.236390 -3.507688 -40.266678 1.593410 -15.165289 14.023628 2.576487 9.008494 -0.444947 -3.854314 -4.861515 6.347581 14.434915 -0.169902 4.893475 3.072474 0.350980 0.180340 0.276680 18.207033 -10.713111 2.738738 -5.196457 2.356139 -24.767341 2.345486 -3.660957 15.868876 0.062778 -2.631927 3.468945 0.171880 0.428860 0.379290 -3.203809 -2.732561 -6.730647 5.642269 -4.034170 4.698975 1.450372 -5.795326 15.829897 0.479275 0.995334 -9.935422 -1.062660 4.938304 42.528391 -7.376930 9.627110 0.342120 0.028767 -3.786046 3.200775 -4.563310 -10.862858 2.864757 93.962556 -65.585651 -60.136202 -3.500904 1.401792 0.148260 0.432700 -0.058550 0.282760 -0.417375 1.439092 6.058222 20.950934 8.567947 2.272144 -120.668969 57.472763 -93.828257 2.027460 -1.498159 -0.121420 0.092440 -0.130790 -0.046230 
0.187210 17.598960 -1.243920 -3.379608 -40.828249 2.213713 -15.186904 14.026351 2.584104 8.556524 -0.484414 -4.531759 -4.801904 6.209712 14.245061 -0.170375 4.735413 3.090490 0.406470 0.234590 0.323940 18.195177 -10.636294 2.763767 -4.996855 2.365900 -24.700877 2.274237 -3.393444 14.146177 0.031797 -2.422205 3.532052 0.170970 0.344480 0.372560 -3.163296 -2.857864 -6.726584 5.478411 -4.019643 3.711891 1.881974 -5.714027 15.236635 0.289415 0.457850 -10.168192 -2.725935 5.282482 45.769077 -6.785080 9.033680 -0.854160 0.987625 -5.393220 2.231350 -1.131943 -9.771419 1.925228 85.497980 -76.805126 -59.387525 -2.978733 0.425147 0.207830 0.350910 0.011670 0.280380 -1.080045 3.476095 7.112834 14.938371 7.138078 2.950860 -121.161199 63.175244 -100.704776 2.119336 -1.309882 -0.082980 0.079780 -0.162980 -0.052080 
0.195680 17.625980 -1.251790 -3.250026 -41.132747 2.856426 -15.210468 14.045584 2.589874 8.107633 -0.545541 -5.352042 -4.696291 6.068841 14.135235 -0.161105 4.560846 3.108889 0.458800 0.292680 0.364910 18.182826 -10.538341 2.780611 -4.895154 2.348788 -24.618382 2.252210 -3.154649 12.443475 -0.002126 -2.225809 3.588661 0.167280 0.253830 0.358610 -3.126751 -3.050857 -6.702715 5.435887 -4.212132 2.722814 1.948058 -5.792750 14.671899 0.261938 -0.084674 -10.690799 -4.819241 5.885184 49.420067 -5.854440 8.309190 -2.019520 2.075454 -7.351778 1.863892 1.435861 -8.499273 1.060546 60.039172 -87.110538 -48.298580 -3.285060 2.068621 0.265320 0.259740 0.085550 0.276170 -2.102021 5.770764 7.989866 10.126948 6.372937 3.595068 -123.732873 69.826111 -111.526005 2.236470 -1.387321 -0.039640 0.065710 -0.196060 -0.052500 
0.206650 17.653050 -1.263130 -3.153386 -40.935961 3.457000 -15.192084 13.993650 2.583349 7.685735 -0.657187 -6.259682 -4.456674 5.891362 14.187613 -0.171097 4.366444 3.139531 0.484310 0.326070 0.385050 18.195839 -10.547372 2.833696 -4.898884 2.308074 -24.626764 2.368866 -3.014252 10.966676 -0.036090 -2.081535 3.635223 0.153440 0.184260 0.333740 -3.184283 -2.928381 -6.749487 5.603150 -4.171944 2.095825 1.947101 -5.612972 14.392356 0.525869 -0.734301 -11.669794 -6.573336 6.464367 52.808391 -4.783150 7.583310 -3.241150 3.026239 -8.544485 4.081795 4.167361 -9.746557 4.699845 -3.567885 -87.993537 6.106700 -3.611979 3.552289 0.325040 0.177180 0.147820 0.267370 -3.430630 7.559025 7.180640 7.120021 5.213937 1.795481 -142.334149 78.455064 -139.383030 2.138854 -2.108510 -0.013930 0.073180 -0.210530 -0.052250 
0.216780 17.677230 -1.275000 -3.070397 -40.523650 4.016620 -15.164278 13.907812 2.560420 7.347314 -0.782537 -7.131746 -4.219385 5.719895 14.261462 -0.199378 4.194098 3.167187 0.499610 0.341610 0.395190 18.223633 -10.578991 2.881187 -4.959500 2.267068 -24.646112 2.519687 -2.926578 9.695329 -0.069616 -1.980063 3.671464 0.137420 0.130450 0.308990 -3.292204 -2.714464 -6.774787 6.001936 -4.085737 1.736330 1.718895 -5.336934 12.929673 0.888959 -1.585694 -11.807587 -8.403651 7.185099 55.853883 -3.590910 6.883810 -4.540520 4.437539 -10.186300 5.845853 5.433301 -11.623846 7.041006 -51.370052 -84.451859 47.258636 -3.666800 3.407047 0.390490 0.105380 0.196450 0.257580 -5.312609 9.990184 4.734196 6.372327 3.633739 -3.321247 130.603937 79.412157 125.391802 1.712772 -0.534233 -0.003140 0.087640 -0.213060 -0.058020 
0.226440 17.694520 -1.284080 -3.017794 -40.340315 4.495069 -15.182728 13.951182 2.573722 7.161359 -0.871292 -7.918202 -4.147236 5.644868 14.272077 -0.221707 4.105652 3.173836 0.507010 0.346560 0.407880 18.209341 -10.477628 2.892134 -4.979552 2.274158 -24.595550 2.630619 -2.838014 8.713324 -0.090858 -1.877607 3.706460 0.123430 0.087820 0.288580 -3.255650 -2.953223 -6.766224 6.309067 -4.439794 1.479628 1.157753 -5.561085 12.293757 1.065484 -1.919441 -12.369740 -10.349228 8.004490 57.823138 -2.789880 6.287850 -5.961490 5.990493 -10.560775 5.671617 5.527132 -13.586581 7.751036 -64.016573 -78.246145 53.946610 -3.638559 3.328903 0.449020 0.048700 0.234940 0.241950 -7.220784 10.269555 5.757600 5.777106 7.637446 0.615338 102.961167 79.498323 86.330151 2.885857 2.883184 -0.001210 0.105400 -0.207760 -0.068800 
0.238540 17.706930 -1.292370 -3.054891 -40.139714 4.885350 -15.177586 13.992240 2.598467 7.050490 -0.955008 -8.606924 -4.048210 5.590825 14.392723 -0.239654 4.042868 3.179011 0.496440 0.336030 0.410810 18.207506 -10.422887 2.922113 -5.034592 2.285877 -24.616353 2.810994 -2.800490 8.062184 -0.094903 -1.810661 3.730506 0.107650 0.065600 0.269920 -3.259075 -3.120776 -6.819356 6.721216 -4.714420 1.414048 0.752444 -5.700521 12.353507 0.989544 -1.815468 -13.277583 -10.929613 8.263380 59.119601 -2.292510 5.964140 -6.729190 7.471510 -11.177988 4.971197 4.698126 -15.818060 7.813523 -65.969833 -72.214797 51.669046 -3.542804 3.447977 0.484550 0.016750 0.254600 0.223580 -8.776655 10.827245 8.126418 4.967757 10.119291 5.001014 91.023676 81.541836 70.765448 3.243558 1.326151 -0.006750 0.121510 -0.195850 -0.077640 
0.250360 17.709580 -1.300360 -2.964522 -39.742807 5.306013 -15.160639 13.972190 2.608821 6.873418 -1.082383 -9.457704 -4.033383 5.561345 14.659981 -0.250815 3.988314 3.191163 0.475850 0.310660 0.405940 18.219870 -10.416070 2.951865 -5.177485 2.308709 -24.969667 2.927637 -2.799083 7.760287 -0.090664 -1.772460 3.748130 0.084630 0.066220 0.261380 -3.310397 -3.098818 -6.854669 7.053202 -4.858548 1.243008 0.428719 -5.708674 11.934719 0.963023 -1.706541 -13.749263 -10.785979 8.169320 59.830122 -2.014850 5.845360 -6.713880 8.929386 -12.390531 4.717245 2.932304 -18.123395 7.972108 -64.467728 -66.901603 46.966080 -3.461248 3.517673 0.499120 0.007910 0.258830 0.212790 -10.297336 12.108088 8.837249 5.393940 11.269288 5.812879 80.930166 78.231602 59.119781 2.781547 -0.610448 -0.012150 0.132110 -0.183280 -0.080240 
0.263590 17.708260 -1.307490 -2.852655 -39.265379 5.709626 -15.145749 13.940199 2.620859 6.706279 -1.214810 -10.284220 -4.056836 5.534564 14.880051 -0.251481 3.938616 3.207705 0.454360 0.282190 0.400270 18.230468 -10.421517 2.976651 -5.353732 2.334186 -25.430434 2.960188 -2.804891 7.669760 -0.085066 -1.747851 3.757238 0.060700 0.070840 0.261250 -3.350080 -3.035412 -6.891468 7.259771 -4.870059 1.131767 0.362269 -5.607215 11.198240 1.028618 -1.560931 -13.896964 -10.380501 7.818575 60.074694 -2.081520 5.801560 -6.237440 10.200080 -13.862479 4.585189 -0.008403 -20.938747 8.290768 -60.255118 -61.763246 40.453348 -3.393702 3.525570 0.502060 0.007560 0.260370 0.208870 -11.719404 13.560096 8.745072 7.068394 12.521064 5.343037 71.225727 72.714490 48.758812 2.411184 -1.502205 -0.014120 0.132160 -0.177250 -0.078840 
0.278520 17.701590 -1.313000 -2.745607 -38.900530 6.002417 -15.133437 13.913827 2.636148 6.546299 -1.322541 -10.952903 -4.109688 5.527546 15.088025 -0.264853 3.906926 3.218385 0.442830 0.267630 0.398290 18.238770 -10.425758 2.996902 -5.583352 2.356964 -25.944948 3.082715 -2.848247 7.813227 -0.073135 -1.742324 3.764487 0.055420 0.073480 0.252750 -3.382181 -2.985806 -6.929281 7.485995 -4.901357 1.165344 0.273357 -5.520358 10.554961 1.121447 -1.447284 -13.805709 -9.939757 7.430152 59.577242 -2.467660 5.894890 -6.011600 11.183028 -15.118660 4.394281 -3.765234 -23.763965 8.782648 -54.469566 -57.049742 33.561654 -3.347985 3.474583 0.500680 0.013220 0.253060 0.207950 -12.909425 14.780798 8.388505 9.402974 14.303347 4.819600 61.848332 67.469603 39.461960 2.207088 -1.783444 -0.024710 0.135630 -0.176720 -0.083990 
